<svg width="961" height="372" viewBox="0 0 961 372" fill="none" xmlns="http://www.w3.org/2000/svg">
<circle cx="18.5" cy="18" r="18" fill="white"/>
<circle cx="102.5" cy="18" r="18" fill="white"/>
<circle cx="186.5" cy="18" r="18" fill="white"/>
<circle cx="270.5" cy="18" r="18" fill="white"/>
<circle cx="354.5" cy="18" r="18" fill="white"/>
<circle cx="438.5" cy="18" r="18" fill="white"/>
<circle cx="522.5" cy="18" r="18" fill="white"/>
<circle cx="606.5" cy="18" r="18" fill="white"/>
<circle cx="690.5" cy="18" r="18" fill="white"/>
<circle cx="774.5" cy="18" r="18" fill="white"/>
<circle cx="858.5" cy="18" r="18" fill="white"/>
<circle cx="942.5" cy="18" r="18" fill="white"/>
<circle cx="18.5" cy="102" r="18" fill="white"/>
<circle cx="102.5" cy="102" r="18" fill="white"/>
<circle cx="186.5" cy="102" r="18" fill="white"/>
<circle cx="270.5" cy="102" r="18" fill="white"/>
<circle cx="354.5" cy="102" r="18" fill="white"/>
<circle cx="438.5" cy="102" r="18" fill="white"/>
<circle cx="522.5" cy="102" r="18" fill="white"/>
<circle cx="606.5" cy="102" r="18" fill="white"/>
<circle cx="690.5" cy="102" r="18" fill="white"/>
<circle cx="774.5" cy="102" r="18" fill="white"/>
<circle cx="858.5" cy="102" r="18" fill="white"/>
<circle cx="942.5" cy="102" r="18" fill="white"/>
<circle cx="18.5" cy="186" r="18" fill="white"/>
<circle cx="102.5" cy="186" r="18" fill="white"/>
<circle cx="186.5" cy="186" r="18" fill="white"/>
<circle cx="270.5" cy="186" r="18" fill="white"/>
<circle cx="354.5" cy="186" r="18" fill="white"/>
<circle cx="438.5" cy="186" r="18" fill="white"/>
<circle cx="522.5" cy="186" r="18" fill="white"/>
<circle cx="606.5" cy="186" r="18" fill="white"/>
<circle cx="690.5" cy="186" r="18" fill="white"/>
<circle cx="774.5" cy="186" r="18" fill="white"/>
<circle cx="858.5" cy="186" r="18" fill="white"/>
<circle cx="942.5" cy="186" r="18" fill="white"/>
<circle cx="18.5" cy="270" r="18" fill="white"/>
<circle cx="102.5" cy="270" r="18" fill="white"/>
<circle cx="186.5" cy="270" r="18" fill="white"/>
<circle cx="270.5" cy="270" r="18" fill="white"/>
<circle cx="354.5" cy="270" r="18" fill="white"/>
<circle cx="438.5" cy="270" r="18" fill="white"/>
<circle cx="522.5" cy="270" r="18" fill="white"/>
<circle cx="606.5" cy="270" r="18" fill="white"/>
<circle cx="690.5" cy="270" r="18" fill="white"/>
<circle cx="774.5" cy="270" r="18" fill="white"/>
<circle cx="858.5" cy="270" r="18" fill="white"/>
<circle cx="942.5" cy="270" r="18" fill="white"/>
<circle cx="18.5" cy="354" r="18" fill="white"/>
<circle cx="102.5" cy="354" r="18" fill="white"/>
<circle cx="186.5" cy="354" r="18" fill="white"/>
<circle cx="270.5" cy="354" r="18" fill="white"/>
<circle cx="354.5" cy="354" r="18" fill="white"/>
<circle cx="438.5" cy="354" r="18" fill="white"/>
<circle cx="522.5" cy="354" r="18" fill="white"/>
<circle cx="606.5" cy="354" r="18" fill="white"/>
<circle cx="690.5" cy="354" r="18" fill="white"/>
<circle cx="774.5" cy="354" r="18" fill="white"/>
<circle cx="858.5" cy="354" r="18" fill="white"/>
<circle cx="942.5" cy="354" r="18" fill="white"/>
</svg>
