<svg width="208" height="208" viewBox="0 0 208 208" fill="none" xmlns="http://www.w3.org/2000/svg">
<g clip-path="url(#clip0_12_94)">
<path fill-rule="evenodd" clip-rule="evenodd" d="M138.92 0.2035C139.071 -0.0123562 139.368 -0.0648152 139.584 0.0863295L154.343 10.4203C154.559 10.5715 154.611 10.869 154.46 11.0848L133.919 40.4206C143.905 43.6109 150.708 47.0523 150.708 47.0523C150.708 47.0523 134.079 75.6572 105.873 75.6572C77.6669 75.6572 57.6241 48.9968 57.6241 48.9968C57.6241 48.9968 64.7309 44.4614 75.2656 40.5715L52.7347 13.7206C52.5654 13.5187 52.5918 13.2177 52.7936 13.0484L66.5951 1.46741C66.7972 1.29803 67.0981 1.32436 67.2673 1.52622L95.7951 35.5243C98.2378 35.248 100.726 35.0936 103.238 35.0936C106.847 35.0936 110.452 35.368 113.971 35.8336L138.92 0.2035ZM144.5 77.0119C152.027 71.6361 163.417 57.6053 163.417 57.6053C163.417 57.6053 192.51 80.6599 192.51 129.544C192.51 178.428 142.212 207.85 142.212 207.85C142.212 207.85 118.182 183.581 112.282 152.816C106.383 122.052 121.009 87.8921 121.009 87.8921C121.009 87.8921 136.973 82.3876 144.5 77.0119ZM63.4363 77.0119C55.9093 71.6361 44.5197 57.6053 44.5197 57.6053C44.5197 57.6053 15.4268 80.6599 15.4268 129.544C15.4268 178.428 65.7239 207.85 65.7239 207.85C65.7239 207.85 89.7548 183.581 95.6543 152.816C101.553 122.052 86.9277 87.8921 86.9277 87.8921C86.9277 87.8921 70.9636 82.3876 63.4363 77.0119Z" fill="white"/>
</g>
<defs>
<clipPath id="clip0_12_94">
<rect width="207.853" height="207.853" fill="white"/>
</clipPath>
</defs>
</svg>
