<svg width="209" height="208" viewBox="0 0 209 208" fill="none" xmlns="http://www.w3.org/2000/svg">
<g clip-path="url(#clip0_12_102)">
<path fill-rule="evenodd" clip-rule="evenodd" d="M42.1131 164.812L75.4515 155.145L104.246 207.795C104.284 207.863 104.382 207.863 104.419 207.795L133.214 155.145L166.553 164.812C166.628 164.833 166.697 164.764 166.675 164.689L157.007 132.01L208.204 104.009C208.273 103.972 208.273 103.874 208.205 103.837L156.585 75.6044L166.675 41.4995C166.697 41.4248 166.628 41.3554 166.553 41.3769L132.432 51.2706L104.419 0.0512276C104.382 -0.0170746 104.284 -0.0170765 104.247 0.051226L76.2338 51.2706L42.1131 41.3769C42.0384 41.3554 41.9689 41.4248 41.9913 41.4995L52.0815 75.6044L0.461384 103.837C0.393082 103.874 0.39308 103.972 0.461382 104.009L51.6593 132.01L41.9913 164.689C41.9689 164.764 42.0384 164.833 42.1131 164.812ZM67.9834 104.282L91.6019 117.199L104.519 140.817C104.557 140.886 104.655 140.886 104.692 140.817L117.609 117.199L141.228 104.282C141.296 104.245 141.296 104.146 141.228 104.109L117.609 91.1917L104.692 67.5737C104.655 67.5051 104.557 67.5051 104.519 67.5737L91.6019 91.1917L67.9834 104.109C67.9152 104.146 67.9152 104.245 67.9834 104.282Z" fill="white"/>
</g>
<defs>
<clipPath id="clip0_12_102">
<rect width="207.853" height="207.853" fill="white" transform="translate(0.410156)"/>
</clipPath>
</defs>
</svg>
