<svg width="209" height="209" viewBox="0 0 209 209" fill="none" xmlns="http://www.w3.org/2000/svg">
<g clip-path="url(#clip0_12_108)">
<path fill-rule="evenodd" clip-rule="evenodd" d="M73.2554 194.794C103.704 194.794 129.771 177.872 140.533 153.883C140.665 153.59 97.327 165.145 98.7089 161.061C99.3259 159.237 125.892 149.532 145.247 138.212C156.372 131.705 161.495 117.932 161.495 117.932C161.495 117.932 142.753 127.032 133.278 129.34C114.185 133.993 97.3773 133.492 97.3773 133.007C97.3773 131.959 125.285 126.656 164.074 103.019C182.319 91.9008 187.275 72.7499 187.275 72.7499C187.275 72.7499 167.216 84.6982 155.09 88.643C126.333 97.9975 100.091 100.817 100.091 99.5508C100.091 96.8406 123.185 90.4901 147.67 78.6258C160.401 72.4572 171.426 64.3981 184.203 55.4356C205.11 40.7719 208.557 14.6555 208.557 14.6555C208.557 14.6555 187.938 27.9549 177.875 32.3714C136.354 50.5957 99.6905 60.1554 73.2554 62.2249C33.351 65.3492 0.705078 93.1914 0.705078 129.34C0.705078 165.49 33.1869 194.794 73.2554 194.794Z" fill="white"/>
</g>
<defs>
<clipPath id="clip0_12_108">
<rect width="207.853" height="207.853" fill="white" transform="translate(0.705078 0.852768)"/>
</clipPath>
</defs>
</svg>
