<svg width="209" height="209" viewBox="0 0 209 209" fill="none" xmlns="http://www.w3.org/2000/svg">
<path fill-rule="evenodd" clip-rule="evenodd" d="M39.9558 179.74C39.2423 179.069 38.5368 178.385 37.8394 177.687C1.02488 140.873 1.02489 81.1846 37.8394 44.3703C74.6537 7.55566 191.959 5.0928 191.959 5.0928C191.959 5.0928 207.971 140.873 171.157 177.687C138.46 210.383 87.7225 214.041 50.9898 188.661L80.5877 152.339L127.903 142.124L89.2798 138.263L113.825 113.271L141.765 107.15L119.672 100.607L141.765 60.7513L110.339 96.0002L98.204 78.8755L102.476 107.15L80.5877 131.825L70.4415 100.607V142.124L39.9558 179.74Z" fill="white"/>
</svg>
