<svg width="209" height="209" viewBox="0 0 209 209" fill="none" xmlns="http://www.w3.org/2000/svg">
<path fill-rule="evenodd" clip-rule="evenodd" d="M156.865 16.555L157.505 72.72L108.517 96.2362L107.913 43.2057L156.865 16.555Z" fill="white"/>
<path fill-rule="evenodd" clip-rule="evenodd" d="M205.972 105.057L157.478 132.795L108.955 105.013L157.453 79.5382L205.972 105.057Z" fill="white"/>
<path fill-rule="evenodd" clip-rule="evenodd" d="M100.329 105.057L51.8352 132.795L3.31201 105.013L51.8101 79.5382L100.329 105.057Z" fill="white"/>
<path fill-rule="evenodd" clip-rule="evenodd" d="M51.2905 16.3251L101.624 41.2535L100.337 95.5777L52.8129 72.0408L51.2905 16.3251Z" fill="white"/>
<path fill-rule="evenodd" clip-rule="evenodd" d="M158.235 192.939L107.901 168.01L109.188 113.686L156.713 137.223L158.235 192.939Z" fill="white"/>
<path fill-rule="evenodd" clip-rule="evenodd" d="M53.029 193.444L52.3892 137.279L101.377 113.763L101.981 166.793L53.029 193.444Z" fill="white"/>
</svg>
