<svg width="208" height="209" viewBox="0 0 208 209" fill="none" xmlns="http://www.w3.org/2000/svg">
<g clip-path="url(#clip0_12_129)">
<path fill-rule="evenodd" clip-rule="evenodd" d="M160.411 99.9205C160.4 99.9043 160.395 99.884 160.398 99.8641L173.658 22.5419C173.664 22.5063 173.696 22.4803 173.731 22.4803H177.928C177.961 22.4803 177.989 22.5013 177.999 22.5322L207.874 117.123C207.883 117.152 207.873 117.184 207.849 117.204L185.821 134.401C185.789 134.427 185.741 134.42 185.716 134.387L160.411 99.9205ZM-0.405762 151.179C-0.405762 151.211 -0.38514 151.24 -0.354655 151.25L45.0519 166.096C45.0738 166.104 45.0982 166.1 45.1172 166.087L146.611 96.018C146.629 96.0062 146.64 95.9879 146.643 95.9676L157.527 22.9384C157.534 22.8936 157.499 22.8533 157.454 22.8533H67.5548C67.5325 22.8533 67.5118 22.8631 67.4975 22.8801L-0.388701 104.775C-0.399729 104.788 -0.405762 104.805 -0.405762 104.822V151.179ZM63.973 169.879L113.579 186.129C113.601 186.136 113.626 186.132 113.645 186.118L172.704 143.755C172.737 143.732 172.745 143.687 172.723 143.654L150.583 110.708C150.56 110.673 150.514 110.664 150.48 110.688L63.973 169.879Z" fill="white"/>
</g>
<defs>
<clipPath id="clip0_12_129">
<rect width="207.853" height="207.853" fill="white" transform="translate(0 0.55835)"/>
</clipPath>
</defs>
</svg>
