2<svg width="209" height="208" viewBox="0 0 209 208" fill="none" xmlns="http://www.w3.org/2000/svg">
<g clip-path="url(#clip0_12_98)">
<path fill-rule="evenodd" clip-rule="evenodd" d="M114.66 103.472C116.069 102.613 117.264 100.813 118.228 98.8125C130.912 103.997 139.826 116.247 139.826 130.533C139.826 149.512 124.095 164.897 104.69 164.897C96.7237 164.897 89.377 162.305 83.4837 157.935C81.5505 157.02 79.9599 156.14 78.6584 155.421C76.6395 154.305 75.3157 153.573 74.4867 153.687C72.0635 154.021 72.7671 156.251 73.4065 158.276C73.8404 159.652 74.2452 160.934 73.6188 161.462C72.9636 162.016 70.8412 159.992 68.3612 157.628C64.9852 154.409 60.9467 150.558 59.0423 151.715C57.5366 152.63 58.9984 155.111 60.7879 158.147L60.9207 158.372C61.6766 159.656 62.5526 160.963 63.352 162.156C64.9771 164.58 66.2859 166.534 65.6311 166.864C64.8394 167.263 59.324 163.541 54.6762 158.372C52.8822 156.378 51.1447 154.216 49.5298 152.207V152.206C45.9951 147.808 43.0502 144.144 41.3971 144.578C39.4085 145.1 40.9129 149.202 43.1233 153.149C44.1569 154.995 45.3727 156.875 46.4254 158.502V158.503C48.0626 161.034 49.3053 162.954 48.8547 163.19C48.2465 163.508 42.8955 158.29 39.2611 151.715C37.1024 147.809 35.2898 143.493 33.8223 139.999C32.2309 136.209 31.0455 133.387 30.2649 133.102C27.5528 132.116 27.5528 137.645 28.6405 145.626C28.7824 146.667 28.9937 147.759 29.2539 148.871C39.8025 183.002 72.2068 207.853 110.546 207.853C157.441 207.853 195.457 170.671 195.457 124.806C195.457 81.1519 161.02 45.3651 117.265 42.0147C117.321 39.9582 118.394 35.8802 118.394 35.8802C118.394 35.8802 126.118 17.1914 126.527 13.1978C126.553 12.9327 126.586 12.6447 126.62 12.338C127.101 8.02299 127.996 0 121.094 0C117.408 0 115.694 2.74213 113.734 5.8783C112.981 7.08226 112.192 8.34435 111.241 9.53159C104.393 18.083 92.8784 28.762 86.3494 34.4512C72.5491 46.4762 59.0094 56.359 51.1126 62.1228L51.1122 62.1232C47.5207 64.7445 45.0967 66.5141 44.3465 67.2452C38.693 72.7566 18.4224 109.32 18.4224 109.32C18.4224 109.32 11.8671 121.051 14.1972 123.43C16.5272 125.809 22.146 125.264 22.146 125.264C22.146 125.264 97.6311 107.947 104.389 106.581C106.209 106.213 107.493 106.001 108.479 105.838C111.157 105.396 111.637 105.316 114.66 103.472ZM61.2893 81.2185C57.2374 85.0698 50.5175 94.2629 50.5175 94.2629C50.5175 94.2629 63.0065 95.0322 69.8847 88.4941C76.7634 81.9557 75.1874 70.8132 75.1874 70.8132C75.1874 70.8132 65.3408 77.3671 61.2893 81.2185Z" fill="white"/>
</g>
<defs>
<clipPath id="clip0_12_98">
<rect width="207.853" height="207.853" fill="white" transform="translate(0.705078)"/>
</clipPath>
</defs>
</svg>
