<svg width="209" height="209" viewBox="0 0 209 209" fill="none" xmlns="http://www.w3.org/2000/svg">
<g clip-path="url(#clip0_12_106)">
<path fill-rule="evenodd" clip-rule="evenodd" d="M143.856 161.368C146.424 151.978 141.439 132.673 141.439 132.673C141.439 132.673 137.824 148.399 132.174 154.212C127.355 159.17 121.45 162.609 112.982 163.513C119.905 160.15 124.667 153.137 124.667 145.032C124.667 133.655 115.284 124.431 103.71 124.431C92.1363 124.431 82.7533 133.655 82.7533 145.032C82.7533 148.14 83.4536 151.086 84.7068 153.728C77.4677 147.961 76.3294 138.715 76.3294 138.715C76.3294 138.715 68.2459 172.276 90.5194 188.063C112.793 203.85 156.425 190.281 156.425 190.281C156.425 190.281 93.9843 234.215 47.7151 186.398C7.85806 145.207 37.3124 90.9777 37.3124 90.9777C37.3124 90.9777 36.0403 96.0083 36.0403 101.848C36.0403 107.688 39.2066 112.131 39.2066 112.131C39.2066 112.131 48.6513 92.2232 56.0016 84.127C62.9582 76.4649 71.6787 70.2504 79.2109 64.8828C85.0089 60.7509 90.1029 57.1208 93.1452 53.7184C109.902 34.9815 99.6276 0.852768 99.6276 0.852768C99.6276 0.852768 118.517 17.5054 123.79 39.0123C125.801 47.2104 124.507 56.5382 123.351 64.8795C121.474 78.4208 119.957 89.3627 133.518 88.6527C155.433 87.5051 136.39 53.7184 136.39 53.7184C136.39 53.7184 186.1 79.8462 182.387 125.542C178.673 171.238 128.05 181.627 128.05 181.627C128.05 181.627 141.287 170.758 143.856 161.368Z" fill="white"/>
</g>
<defs>
<clipPath id="clip0_12_106">
<rect width="207.853" height="207.853" fill="white" transform="translate(0.852539 0.852768)"/>
</clipPath>
</defs>
</svg>
