<svg width="209" height="209" viewBox="0 0 209 209" fill="none" xmlns="http://www.w3.org/2000/svg">
<g clip-path="url(#clip0_12_133)">
<path fill-rule="evenodd" clip-rule="evenodd" d="M172.092 141.23C172.092 178.328 141.905 208.402 104.667 208.402C67.4291 208.402 37.2422 178.328 37.2422 141.23C37.2422 105.15 101.02 6.05829 104.517 0.650832C104.597 0.527521 104.737 0.527523 104.816 0.650833C108.314 6.05829 172.092 105.15 172.092 141.23ZM93.4274 186.867C59.2129 179.381 65.0677 141.48 65.0677 141.48C65.0677 141.48 74.4105 164.359 97.0831 171.771C119.755 179.181 147.154 168.312 147.154 168.312C147.154 168.312 127.642 194.353 93.4274 186.867Z" fill="white"/>
</g>
<defs>
<clipPath id="clip0_12_133">
<rect width="207.853" height="207.853" fill="white" transform="translate(0.705078 0.55835)"/>
</clipPath>
</defs>
</svg>
