<svg width="209" height="209" viewBox="0 0 209 209" fill="none" xmlns="http://www.w3.org/2000/svg">
<g clip-path="url(#clip0_12_110)">
<path fill-rule="evenodd" clip-rule="evenodd" d="M150.338 207.986C131.59 208.945 110.125 208.945 102.831 207.986C45.932 200.5 0.557617 158.899 0.557617 102.668C0.557617 46.4371 47.087 0.852768 104.484 0.852768C161.881 0.852768 208.41 46.4371 208.41 102.668C208.41 128.821 198.345 152.67 181.804 170.702C177.312 175.598 183.475 179.033 189.737 182.523C195.878 185.945 202.115 189.421 198.49 194.38C194.496 199.845 172.845 206.834 150.338 207.986ZM89.8694 89.9412C89.8694 98.7271 82.599 105.85 73.6309 105.85C64.6627 105.85 57.3924 98.7271 57.3924 89.9412C57.3924 84.0487 60.6624 78.9047 65.5214 76.1551C65.8011 83.8161 72.1 89.9408 79.8295 89.9408L89.8694 89.9412ZM140.199 76.1551C139.919 83.8161 133.62 89.9408 125.891 89.9408H115.851C115.851 98.7267 123.121 105.85 132.089 105.85C141.058 105.85 148.328 98.7271 148.328 89.9412C148.328 84.0487 145.058 78.9047 140.199 76.1551Z" fill="white"/>
</g>
<defs>
<clipPath id="clip0_12_110">
<rect width="207.853" height="207.853" fill="white" transform="translate(0.557617 0.852768)"/>
</clipPath>
</defs>
</svg>
