<svg width="209" height="209" viewBox="0 0 209 209" fill="none" xmlns="http://www.w3.org/2000/svg">
<g clip-path="url(#clip0_12_127)">
<path fill-rule="evenodd" clip-rule="evenodd" d="M185.499 173.314C185.499 173.314 159.29 194.335 107.135 185.636C67.566 179.036 46.4616 135.417 46.4616 111.971C46.4616 56.3829 87.6043 43.7327 115.42 43.7327C143.235 43.7327 161.38 70.851 161.38 91.8474C161.38 112.844 146.53 131.209 123.419 131.209C100.31 131.209 93.4652 114.984 93.4652 100.068C93.4652 85.1522 105.533 79.897 116.539 79.897C127.545 79.897 131.314 89.2934 131.314 97.3693C131.314 105.445 125.048 108.338 119.821 108.338C114.595 108.338 114.078 105.701 112.078 102.93C110.078 100.159 114.629 89.6706 107.135 89.6706C99.6411 89.6706 98.2441 101.728 98.2441 101.728C98.2441 101.728 100.976 125.003 123.419 124.602C145.863 124.2 156.51 106.849 153.416 89.6706C150.322 72.4919 133.65 54.2378 104.391 57.9263C75.1315 61.6149 63.1852 91.1787 68.451 122.772C73.7167 154.366 111.566 172.672 141.325 166.086C171.084 159.5 200.724 137.956 200.724 83.3323C200.724 28.7084 153.416 -4.1255 97.0055 1.28571C40.595 6.69689 5.57794 56.0147 7.81934 115.271C10.0607 174.527 66.288 206.8 113.834 208.463C161.38 210.127 190.528 182.604 190.528 182.604C190.528 182.604 197.083 176.758 194.512 172.194C191.943 167.629 185.499 173.314 185.499 173.314Z" fill="white"/>
</g>
<defs>
<clipPath id="clip0_12_127">
<rect width="207.853" height="207.853" fill="white" transform="translate(0.410156 0.705536)"/>
</clipPath>
</defs>
</svg>
