<svg width="209" height="209" viewBox="0 0 209 209" fill="none" xmlns="http://www.w3.org/2000/svg">
<g clip-path="url(#clip0_12_125)">
<path fill-rule="evenodd" clip-rule="evenodd" d="M174.237 160.431C195.226 143.648 208.41 119.399 208.41 92.4327C208.41 41.7731 161.881 0.705536 104.484 0.705536C47.087 0.705536 0.557617 41.7731 0.557617 92.4327C0.557617 118.426 12.807 141.894 32.4887 158.585C31.2959 162.703 30.6415 167.183 30.6415 171.867C30.6415 192.131 42.8861 208.558 57.9907 208.558C67.8053 208.558 76.4125 201.622 81.2374 191.205C86.0622 201.622 94.6695 208.558 104.484 208.558C113.431 208.558 121.374 202.795 126.363 193.886C131.353 202.795 139.296 208.558 148.242 208.558C163.347 208.558 175.592 192.131 175.592 171.867C175.592 167.874 175.116 164.03 174.237 160.431ZM164.652 94.2519C164.652 119.971 137.101 140.821 103.117 140.821C69.1316 140.821 41.5813 119.971 41.5813 94.2519C41.5813 68.5325 69.1316 47.6827 103.117 47.6827C137.101 47.6827 164.652 68.5325 164.652 94.2519Z" fill="white"/>
</g>
<defs>
<clipPath id="clip0_12_125">
<rect width="207.853" height="207.853" fill="white" transform="translate(0.557617 0.705536)"/>
</clipPath>
</defs>
</svg>
