<svg width="208" height="209" viewBox="0 0 208 209" fill="none" xmlns="http://www.w3.org/2000/svg">
<g clip-path="url(#clip0_12_104)">
<path fill-rule="evenodd" clip-rule="evenodd" d="M35.8195 18.1328C38.335 8.20126 47.3324 0.852768 58.0457 0.852768C66.0818 0.852768 73.1524 4.98737 77.2461 11.2454H83.9498C88.1146 6.97127 93.9332 4.31698 100.372 4.31698C109.812 4.31698 117.92 10.0227 121.435 18.1738H127.048C130.564 15.9783 134.72 14.7096 139.171 14.7096C148.612 14.7096 156.719 20.4154 160.234 28.5665H175.496C175.627 28.5665 175.749 28.6016 175.854 28.6629C176.551 28.5991 177.257 28.5665 177.97 28.5665C190.633 28.5665 200.897 38.8311 200.897 51.4933V120.241L200.897 120.368L200.897 120.496V121.486C200.897 121.905 200.886 122.323 200.863 122.739C199.483 170.43 156.6 208.706 103.899 208.706C50.3288 208.706 6.90137 169.155 6.90137 120.368C6.90137 96.8186 17.0199 75.4212 33.5136 59.5854C33.4725 82.5438 33.8603 106.279 35.6479 105.872C40.4343 104.78 36.6946 33.6706 35.8195 18.1328Z" fill="white"/>
</g>
<defs>
<clipPath id="clip0_12_104">
<rect width="207.853" height="207.853" fill="white" transform="translate(0 0.852768)"/>
</clipPath>
</defs>
</svg>
