<svg width="209" height="209" viewBox="0 0 209 209" fill="none" xmlns="http://www.w3.org/2000/svg">
<g clip-path="url(#clip0_12_131)">
<path fill-rule="evenodd" clip-rule="evenodd" d="M0.873288 103.887C0.845636 103.84 0.845622 103.781 0.873251 103.734L53.1385 14.4359C53.1657 14.3896 53.2156 14.3611 53.2692 14.3611H156.861C156.915 14.3611 156.965 14.3898 156.993 14.4366L208.685 103.735C208.712 103.781 208.712 103.839 208.685 103.886L156.993 193.084C156.965 193.13 156.915 193.159 156.861 193.159H53.2692C53.2156 193.159 53.1657 193.131 53.1385 193.084L0.873288 103.887ZM152.933 103.76C152.933 130.346 131.381 151.898 104.795 151.898C78.2095 151.898 56.6574 130.346 56.6574 103.76C56.6574 77.174 78.2095 55.6223 104.795 55.6223C131.381 55.6223 152.933 77.174 152.933 103.76Z" fill="white"/>
</g>
<defs>
<clipPath id="clip0_12_131">
<rect width="207.853" height="207.853" fill="white" transform="translate(0.852539 0.55835)"/>
</clipPath>
</defs>
</svg>
