<svg width="209" height="208" viewBox="0 0 209 208" fill="none" xmlns="http://www.w3.org/2000/svg">
<g clip-path="url(#clip0_12_100)">
<path fill-rule="evenodd" clip-rule="evenodd" d="M62.4924 0.236944C62.4522 0.120961 62.5387 0 62.6613 0H135.665C135.743 0 135.813 0.0509836 135.836 0.12576L169.368 108.461C169.403 108.576 169.317 108.693 169.197 108.693H120.595C120.536 108.693 120.493 108.749 120.51 108.806L148.384 206.93C148.438 207.12 148.189 207.244 148.07 207.086L39.7461 63.0326C39.6576 62.9148 39.7416 62.7468 39.8888 62.7468H83.9987C84.06 62.7468 84.103 62.6863 84.0827 62.6282L62.4924 0.236944Z" fill="white"/>
</g>
<defs>
<clipPath id="clip0_12_100">
<rect width="207.853" height="207.853" fill="white" transform="translate(0.558594)"/>
</clipPath>
</defs>
</svg>
