<svg width="208" height="209" viewBox="0 0 208 209" fill="none" xmlns="http://www.w3.org/2000/svg">
<g clip-path="url(#clip0_12_114)">
<path fill-rule="evenodd" clip-rule="evenodd" d="M45.7779 179.229C45.7215 179.229 45.6821 179.174 45.7008 179.12L98.7662 29.1773C98.778 29.1447 98.8088 29.1229 98.8433 29.1229H155.492C155.527 29.1229 155.558 29.1449 155.569 29.1777L207.847 179.121C207.866 179.174 207.826 179.229 207.77 179.229H47.3726H45.7779ZM0.0817227 179.816C0.0247281 179.816 -0.0147304 179.759 0.00526157 179.706L39.5215 74.2075C39.5335 74.1754 39.5639 74.1543 39.598 74.1543H73.9331C73.9899 74.1543 74.0293 74.2107 74.0098 74.2639L35.7987 179.762C35.787 179.794 35.7563 179.816 35.7219 179.816H0.0817227Z" fill="white"/>
</g>
<defs>
<clipPath id="clip0_12_114">
<rect width="207.853" height="207.853" fill="white" transform="translate(0 0.705536)"/>
</clipPath>
</defs>
</svg>
