<svg width="209" height="208" viewBox="0 0 209 208" fill="none" xmlns="http://www.w3.org/2000/svg">
<g clip-path="url(#clip0_12_96)">
<path fill-rule="evenodd" clip-rule="evenodd" d="M93.9717 183.84C97.9205 184.445 101.965 184.758 106.083 184.758C149.928 184.758 185.471 149.215 185.471 105.37C185.471 61.5248 149.928 25.9816 106.083 25.9816C103.141 25.9816 100.237 26.1416 97.3781 26.4534C119.128 42.9309 133.508 71.4746 133.508 103.926C133.508 138.043 117.614 167.841 93.9717 183.84ZM104.639 207.853C162.036 207.853 208.566 161.323 208.566 103.926C208.566 46.5294 162.036 0 104.639 0C47.2422 0 0.712891 46.5294 0.712891 103.926C0.712891 161.323 47.2422 207.853 104.639 207.853Z" fill="white"/>
</g>
<defs>
<clipPath id="clip0_12_96">
<rect width="207.853" height="207.853" fill="white" transform="translate(0.852539)"/>
</clipPath>
</defs>
</svg>
